<svg width="22" height="14" viewBox="0 0 22 14" fill="none" xmlns="http://www.w3.org/2000/svg">
<path d="M21.0887 10.8599C20.4337 10.0742 19.6629 9.40372 18.9336 8.69171C18.2756 8.04992 18.2341 7.67761 18.763 6.93688C19.3403 6.12843 19.9611 5.35099 20.5436 4.54619C21.0874 3.79405 21.6432 3.04397 21.9293 2.14341C22.1108 1.57048 21.9503 1.31741 21.3628 1.21709C21.2616 1.19954 21.1569 1.19863 21.0539 1.19863L17.5681 1.19452C17.1388 1.18814 16.9015 1.37532 16.7497 1.75583C16.5447 2.27017 16.3334 2.78406 16.0892 3.28039C15.5352 4.40575 14.9164 5.49348 14.0489 6.41456C13.8576 6.61769 13.646 6.87441 13.3264 6.76862C12.9265 6.62271 12.8086 5.96382 12.8153 5.74108L12.8118 1.71776C12.7343 1.143 12.6069 0.886739 12.0362 0.775024L8.4153 0.775708C7.93197 0.775708 7.68961 0.962431 7.43153 1.26474C7.28265 1.43938 7.23774 1.55269 7.5437 1.6106C8.14468 1.7246 8.48324 2.11355 8.57307 2.71612C8.71716 3.67892 8.70713 4.64559 8.62414 5.61226C8.59974 5.89451 8.55118 6.17608 8.43924 6.43963C8.26414 6.85389 7.98144 6.93825 7.61005 6.68335C7.27376 6.45263 7.03757 6.12706 6.80639 5.80013C5.93798 4.57309 5.24512 3.24984 4.68016 1.85934C4.51692 1.45762 4.23536 1.21413 3.8097 1.20752C2.76392 1.19088 1.71791 1.18814 0.672121 1.20843C0.0428721 1.22029 -0.144763 1.52579 0.111497 2.09622C1.25053 4.62986 2.51837 7.09305 4.17334 9.33692C5.02306 10.4885 5.99862 11.5051 7.25894 12.2255C8.68729 13.0422 10.2248 13.288 11.8443 13.2123C12.6025 13.1767 12.8303 12.9795 12.8654 12.2237C12.8891 11.7066 12.9477 11.1925 13.2028 10.7279C13.4532 10.2719 13.8323 10.185 14.2694 10.4687C14.488 10.6107 14.6722 10.7915 14.8462 10.9821C15.273 11.449 15.6845 11.9301 16.1275 12.3812C16.6831 12.9467 17.3413 13.2807 18.1689 13.2125L21.3726 13.2132C21.8888 13.1794 22.1564 12.5465 21.86 11.9704C21.6519 11.5669 21.3787 11.2076 21.0887 10.8599Z" fill="#312C3A"/>
</svg>
